<svg width="105px" height="21px" viewBox="0 0 105 21" version="1.1" xmlns="http://www.w3.org/2000/svg">
    <g stroke="none" stroke-width="1" fill="none" fill-rule="evenodd">
        <rect fill="#53A051" x="0" y="0" width="21" height="21"></rect>
        <rect fill="#53A051" x="21" y="0" width="21" height="21"></rect>
        <rect fill="#F8BE34" x="42" y="0" width="21" height="21"></rect>
        <rect fill="#F8BE34" x="63" y="0" width="21" height="21"></rect>
        <rect fill="#DC4E41" x="84" y="0" width="21" height="21"></rect>
        <path d="M10.284,15.168 C7.722,15.168 6.714,12.606 6.714,10.338 C6.714,8.056 7.722,5.522 10.284,5.522 C12.832,5.522 13.854,8.056 13.854,10.338 C13.854,12.606 12.832,15.168 10.284,15.168 Z M10.284,14.132 C12.062,14.132 12.664,12.2 12.664,10.338 C12.664,8.476 12.062,6.558 10.284,6.558 C8.506,6.558 7.904,8.476 7.904,10.338 C7.904,12.2 8.506,14.132 10.284,14.132 Z" fill="#FFFFFF"></path>
        <polygon fill="#FFFFFF" points="32.654 15 31.492 15 31.492 7.188 29.994 8.784 29.294 8.07 31.632 5.662 32.654 5.662"></polygon>
        <path d="M53.326,15.168 C50.708,15.168 49.714,12.886 49.714,10.338 C49.714,7.818 50.89,5.522 53.522,5.522 C54.712,5.522 55.524,5.97 56.098,6.642 L55.51,7.51 C55.034,6.95 54.488,6.558 53.522,6.558 C51.702,6.558 50.89,8.392 50.89,10.226 L50.89,10.59 C51.296,9.946 52.332,9.134 53.536,9.134 C55.216,9.134 56.588,10.128 56.588,12.116 C56.588,13.726 55.356,15.168 53.326,15.168 Z M53.27,14.132 C54.712,14.132 55.412,13.04 55.412,12.158 C55.412,10.786 54.46,10.142 53.27,10.142 C52.332,10.142 51.436,10.716 50.932,11.528 C51.03,12.69 51.646,14.132 53.27,14.132 Z" fill="#000000"></path>
        <polygon fill="#000000" points="72.982 15 71.694 15 75.46 6.698 70.434 6.698 70.434 5.662 76.804 5.662 76.804 6.46"></polygon>
        <path d="M94.766,15.154 C93.576,15.154 92.764,14.692 92.176,14.034 L92.764,13.166 C93.24,13.726 93.8,14.118 94.766,14.118 C96.656,14.118 97.398,12.228 97.398,10.45 C97.398,10.338 97.398,10.212 97.384,10.086 C96.978,10.73 95.942,11.542 94.752,11.542 C93.072,11.542 91.686,10.548 91.686,8.56 C91.686,6.95 92.918,5.508 94.962,5.508 C97.566,5.508 98.574,7.79 98.574,10.338 C98.574,12.858 97.384,15.154 94.766,15.154 Z M95.018,10.534 C95.942,10.534 96.852,9.96 97.356,9.134 C97.244,7.986 96.628,6.544 95.004,6.544 C93.576,6.544 92.862,7.622 92.862,8.518 C92.862,9.89 93.814,10.534 95.018,10.534 Z" fill="#FFFFFF"></path>
    </g>
</svg>