<svg width="105px" height="21px" viewBox="0 0 105 21" version="1.1" xmlns="http://www.w3.org/2000/svg">
    <g stroke="none" stroke-width="1" fill="none" fill-rule="evenodd">
        <rect fill="#FFFFFF" x="0" y="0" width="21" height="21"></rect>
        <rect fill="#C1DDE9" x="21" y="0" width="21" height="21"></rect>
        <rect fill="#84BBD3" x="42" y="0" width="21" height="21"></rect>
        <rect fill="#4699BC" x="63" y="0" width="21" height="21"></rect>
        <rect fill="#0877A6" x="84" y="0" width="21" height="21"></rect>
        <path d="M10.284,15.168 C7.722,15.168 6.714,12.606 6.714,10.338 C6.714,8.056 7.722,5.522 10.284,5.522 C12.832,5.522 13.854,8.056 13.854,10.338 C13.854,12.606 12.832,15.168 10.284,15.168 Z M10.284,14.132 C12.062,14.132 12.664,12.2 12.664,10.338 C12.664,8.476 12.062,6.558 10.284,6.558 C8.506,6.558 7.904,8.476 7.904,10.338 C7.904,12.2 8.506,14.132 10.284,14.132 Z" fill="#000000"></path>
        <polygon fill="#000000" points="32.654 15 31.492 15 31.492 7.188 29.994 8.784 29.294 8.07 31.632 5.662 32.654 5.662"></polygon>
        <path d="M52.724,15.168 C51.142,15.168 49.98,14.468 49.406,13.628 L50.092,12.9 C50.638,13.628 51.59,14.132 52.696,14.132 C54.054,14.132 54.88,13.446 54.88,12.382 C54.88,11.22 53.928,10.73 52.556,10.73 C52.164,10.73 51.73,10.73 51.59,10.744 L51.59,9.68 C51.744,9.694 52.178,9.694 52.556,9.694 C53.732,9.694 54.726,9.232 54.726,8.154 C54.726,7.118 53.774,6.558 52.64,6.558 C51.618,6.558 50.862,6.95 50.176,7.692 L49.532,6.964 C50.204,6.138 51.282,5.522 52.738,5.522 C54.53,5.522 55.888,6.432 55.888,8 C55.888,9.358 54.754,10.03 53.886,10.17 C54.726,10.254 56.042,10.968 56.042,12.48 C56.042,14.034 54.782,15.168 52.724,15.168 Z" fill="#000000"></path>
        <path d="M74.214,15.168 C72.646,15.168 71.624,14.594 70.924,13.67 L71.638,12.886 C72.254,13.684 73.08,14.132 74.214,14.132 C75.488,14.132 76.37,13.264 76.37,12.13 C76.37,10.898 75.488,10.114 74.228,10.114 C73.416,10.114 72.702,10.38 72.072,10.982 L71.218,10.688 L71.218,5.662 L76.93,5.662 L76.93,6.698 L72.38,6.698 L72.38,9.946 C72.842,9.498 73.626,9.106 74.564,9.106 C76.132,9.106 77.546,10.156 77.546,12.088 C77.546,13.978 76.09,15.168 74.214,15.168 Z" fill="#FFFFFF"></path>
        <polygon fill="#FFFFFF" points="93.982 15 92.694 15 96.46 6.698 91.434 6.698 91.434 5.662 97.804 5.662 97.804 6.46"></polygon>
    </g>
</svg>