<svg width="105px" height="21px" viewBox="0 0 105 21" version="1.1" xmlns="http://www.w3.org/2000/svg">
    <g stroke="none" stroke-width="1" fill="none" fill-rule="evenodd">
        <rect fill="#5A4575" x="0" y="0" width="21" height="21"></rect>
        <rect fill="#F1813F" x="21" y="0" width="21" height="21"></rect>
        <rect fill="#5A4575" x="42" y="0" width="21" height="21"></rect>
        <rect fill="#F1813F" x="63" y="0" width="21" height="21"></rect>
        <rect fill="#708794" x="84" y="0" width="21" height="21"></rect>
        <path d="M13.328,14 L12.278,14 L12.278,13.23 C11.732,13.846 10.948,14.168 10.038,14.168 C8.904,14.168 7.686,13.398 7.686,11.928 C7.686,10.402 8.89,9.702 10.038,9.702 C10.962,9.702 11.732,9.996 12.278,10.612 L12.278,9.394 C12.278,8.498 11.55,7.98 10.57,7.98 C9.758,7.98 9.1,8.26 8.498,8.918 L8.008,8.19 C8.736,7.434 9.604,7.07 10.71,7.07 C12.152,7.07 13.328,7.714 13.328,9.352 L13.328,14 Z M10.43,13.412 C11.158,13.412 11.872,13.132 12.278,12.572 L12.278,11.284 C11.872,10.738 11.158,10.458 10.43,10.458 C9.436,10.458 8.75,11.074 8.75,11.928 C8.75,12.796 9.436,13.412 10.43,13.412 Z" fill="#FFFFFF"></path>
        <path d="M30.1,12.166 C30.464,12.754 31.29,13.23 32.13,13.23 C33.488,13.23 34.3,12.124 34.3,10.626 C34.3,9.128 33.488,8.008 32.13,8.008 C31.29,8.008 30.464,8.512 30.1,9.1 L30.1,12.166 Z M30.1,14 L29.05,14 L29.05,4.662 L30.1,4.662 L30.1,8.26 C30.646,7.518 31.472,7.07 32.382,7.07 C34.16,7.07 35.392,8.456 35.392,10.626 C35.392,12.824 34.146,14.168 32.382,14.168 C31.43,14.168 30.604,13.678 30.1,12.992 L30.1,14 Z" fill="#FFFFFF"></path>
        <path d="M55.328,14 L54.278,14 L54.278,13.23 C53.732,13.846 52.948,14.168 52.038,14.168 C50.904,14.168 49.686,13.398 49.686,11.928 C49.686,10.402 50.89,9.702 52.038,9.702 C52.962,9.702 53.732,9.996 54.278,10.612 L54.278,9.394 C54.278,8.498 53.55,7.98 52.57,7.98 C51.758,7.98 51.1,8.26 50.498,8.918 L50.008,8.19 C50.736,7.434 51.604,7.07 52.71,7.07 C54.152,7.07 55.328,7.714 55.328,9.352 L55.328,14 Z M52.43,13.412 C53.158,13.412 53.872,13.132 54.278,12.572 L54.278,11.284 C53.872,10.738 53.158,10.458 52.43,10.458 C51.436,10.458 50.75,11.074 50.75,11.928 C50.75,12.796 51.436,13.412 52.43,13.412 Z" fill="#FFFFFF"></path>
        <path d="M72.1,12.166 C72.464,12.754 73.29,13.23 74.13,13.23 C75.488,13.23 76.3,12.124 76.3,10.626 C76.3,9.128 75.488,8.008 74.13,8.008 C73.29,8.008 72.464,8.512 72.1,9.1 L72.1,12.166 Z M72.1,14 L71.05,14 L71.05,4.662 L72.1,4.662 L72.1,8.26 C72.646,7.518 73.472,7.07 74.382,7.07 C76.16,7.07 77.392,8.456 77.392,10.626 C77.392,12.824 76.146,14.168 74.382,14.168 C73.43,14.168 72.604,13.678 72.1,12.992 L72.1,14 Z" fill="#FFFFFF"></path>
        <path d="M98,14 L96.95,14 L96.95,12.992 C96.446,13.678 95.62,14.168 94.668,14.168 C92.904,14.168 91.658,12.824 91.658,10.626 C91.658,8.456 92.904,7.07 94.668,7.07 C95.578,7.07 96.404,7.518 96.95,8.26 L96.95,4.662 L98,4.662 L98,14 Z M94.934,13.23 C95.76,13.23 96.586,12.74 96.95,12.152 L96.95,9.1 C96.586,8.512 95.76,8.008 94.934,8.008 C93.562,8.008 92.75,9.128 92.75,10.626 C92.75,12.124 93.562,13.23 94.934,13.23 Z" fill="#FFFFFF"></path>
    </g>
</svg>